<svg class="animated" id="freepik_stories-dashboard" xmlns="http://www.w3.org/2000/svg" viewBox="0 0 500 500" version="1.1" xmlns:xlink="http://www.w3.org/1999/xlink" xmlns:svgjs="http://svgjs.com/svgjs"><style>svg#freepik_stories-dashboard:not(.animated) .animable {opacity: 0;}svg#freepik_stories-dashboard.animated #freepik--background-complete--inject-355 {animation: 1s 1 forwards cubic-bezier(.36,-0.01,.5,1.38) fadeIn;animation-delay: 0s;}svg#freepik_stories-dashboard.animated #freepik--Shadow--inject-355 {animation: 1s 1 forwards cubic-bezier(.36,-0.01,.5,1.38) slideRight;animation-delay: 0s;}svg#freepik_stories-dashboard.animated #freepik--Dashboard--inject-355 {animation: 1s 1 forwards cubic-bezier(.36,-0.01,.5,1.38) slideDown;animation-delay: 0s;}svg#freepik_stories-dashboard.animated #freepik--character-2--inject-355 {animation: 1s 1 forwards cubic-bezier(.36,-0.01,.5,1.38) slideRight;animation-delay: 0s;}svg#freepik_stories-dashboard.animated #freepik--character-1--inject-355 {animation: 1s 1 forwards cubic-bezier(.36,-0.01,.5,1.38) slideDown;animation-delay: 0s;}            @keyframes fadeIn {                0% {                    opacity: 0;                }                100% {                    opacity: 1;                }            }                    @keyframes slideRight {                0% {                    opacity: 0;                    transform: translateX(30px);                }                100% {                    opacity: 1;                    transform: translateX(0);                }            }                    @keyframes slideDown {                0% {                    opacity: 0;                    transform: translateY(-30px);                }                100% {                    opacity: 1;                    transform: translateY(0);                }            }        </style><g id="freepik--background-complete--inject-355" class="animable" style="transform-origin: 250px 228.23px;"><rect y="382.4" width="500" height="0.25" style="fill: rgb(235, 235, 235); transform-origin: 250px 382.525px;" id="el2azet1quzjq" class="animable"></rect><rect x="52.46" y="398.49" width="33.12" height="0.25" style="fill: rgb(235, 235, 235); transform-origin: 69.02px 398.615px;" id="elvpm1a003g8" class="animable"></rect><rect x="171.14" y="401.21" width="8.69" height="0.25" style="fill: rgb(235, 235, 235); transform-origin: 175.485px 401.335px;" id="elxtr2tnzee8l" class="animable"></rect><rect x="86.58" y="389.21" width="25.42" height="0.25" style="fill: rgb(235, 235, 235); transform-origin: 99.29px 389.335px;" id="elcfd06elmvvf" class="animable"></rect><rect x="422" y="390.89" width="27.9" height="0.25" style="fill: rgb(235, 235, 235); transform-origin: 435.95px 391.015px;" id="elbv0w6wd1sl" class="animable"></rect><rect x="391.47" y="390.89" width="21.63" height="0.25" style="fill: rgb(235, 235, 235); transform-origin: 402.285px 391.015px;" id="elqjx1fho1sm" class="animable"></rect><rect x="277.21" y="395.11" width="51.45" height="0.25" style="fill: rgb(235, 235, 235); transform-origin: 302.935px 395.235px;" id="el9gowj6t9d4" class="animable"></rect><path d="M237,337.8H43.91a5.71,5.71,0,0,1-5.7-5.71V60.66A5.71,5.71,0,0,1,43.91,55H237a5.71,5.71,0,0,1,5.71,5.71V332.09A5.71,5.71,0,0,1,237,337.8ZM43.91,55.2a5.46,5.46,0,0,0-5.45,5.46V332.09a5.46,5.46,0,0,0,5.45,5.46H237a5.47,5.47,0,0,0,5.46-5.46V60.66A5.47,5.47,0,0,0,237,55.2Z" style="fill: rgb(235, 235, 235); transform-origin: 140.46px 196.4px;" id="elyojcfgpi3" class="animable"></path><path d="M453.31,337.8H260.21a5.72,5.72,0,0,1-5.71-5.71V60.66A5.72,5.72,0,0,1,260.21,55h193.1A5.71,5.71,0,0,1,459,60.66V332.09A5.71,5.71,0,0,1,453.31,337.8ZM260.21,55.2a5.47,5.47,0,0,0-5.46,5.46V332.09a5.47,5.47,0,0,0,5.46,5.46h193.1a5.47,5.47,0,0,0,5.46-5.46V60.66a5.47,5.47,0,0,0-5.46-5.46Z" style="fill: rgb(235, 235, 235); transform-origin: 356.75px 196.4px;" id="elsqti4bs7dr" class="animable"></path><rect x="56.11" y="72.33" width="262.94" height="148.36" rx="11.58" ry="11.58" style="fill: rgb(240, 240, 240); transform-origin: 187.58px 146.51px;" id="elyiraqjfu93k" class="animable"></rect><g id="elp01apqurxr"><rect x="116.3" y="17.94" width="142.57" height="257.15" rx="8.68" ry="8.68" style="fill: rgb(250, 250, 250); transform-origin: 187.585px 146.515px; transform: rotate(90deg);" class="animable" id="elpo09avk8rrb"></rect></g><circle cx="77.44" cy="85.6" r="3.54" style="fill: rgb(235, 235, 235); transform-origin: 77.44px 85.6px;" id="eluq4ks4uscem" class="animable"></circle><circle cx="91.12" cy="85.6" r="3.54" style="fill: rgb(235, 235, 235); transform-origin: 91.12px 85.6px;" id="elatkmhao1vvk" class="animable"></circle><circle cx="104.79" cy="85.6" r="3.54" style="fill: rgb(235, 235, 235); transform-origin: 104.79px 85.6px;" id="elbmcwoh2j5cd" class="animable"></circle><rect x="269.18" y="94.24" width="169.67" height="116.58" rx="15.91" ry="15.91" style="fill: rgb(255, 255, 255); transform-origin: 354.015px 152.53px;" id="el0bcyfdrx2wz" class="animable"></rect><path d="M422.94,211.48H285.08a16.6,16.6,0,0,1-16.57-16.57V110.14a16.6,16.6,0,0,1,16.57-16.57H422.94a16.6,16.6,0,0,1,16.57,16.57v84.77A16.6,16.6,0,0,1,422.94,211.48ZM285.08,94.9a15.26,15.26,0,0,0-15.24,15.24v84.77a15.26,15.26,0,0,0,15.24,15.24H422.94a15.26,15.26,0,0,0,15.24-15.24V110.14A15.26,15.26,0,0,0,422.94,94.9Z" style="fill: rgb(224, 224, 224); transform-origin: 354.01px 152.525px;" id="elwcv6uzpvf1d" class="animable"></path><path d="M335.7,196.28a47.53,47.53,0,0,1-19.42-15l5.38-4.1a40.67,40.67,0,0,0,69.86-8.95l6.24,2.61A47.65,47.65,0,0,1,335.7,196.28Z" style="fill: rgb(224, 224, 224); transform-origin: 357.02px 184.059px;" id="el0belngu7g69" class="animable"></path><path d="M397.76,170.82l-6.24-2.61A40.64,40.64,0,0,0,369.69,115l2.62-6.26a47.43,47.43,0,0,1,25.45,62.05Z" style="fill: rgb(235, 235, 235); transform-origin: 385.56px 139.78px;" id="el0bf5o9sz5ri" class="animable"></path><path d="M316.28,181.26a47.42,47.42,0,0,1,56-72.49L369.69,115a40.68,40.68,0,0,0-48,62.13Z" style="fill: rgb(245, 245, 245); transform-origin: 339.432px 143.183px;" id="elhidoxx0qwkv" class="animable"></path></g><g id="freepik--Shadow--inject-355" class="animable" style="transform-origin: 250px 416.24px;"><ellipse id="freepik--path--inject-355" cx="250" cy="416.24" rx="193.89" ry="11.32" style="fill: rgb(245, 245, 245); transform-origin: 250px 416.24px;" class="animable"></ellipse></g><g id="freepik--Dashboard--inject-355" class="animable" style="transform-origin: 250.77px 256.681px;"><g id="elmo8dvw2nd9g"><g style="opacity: 0.3; transform-origin: 250.77px 229.275px;" class="animable" id="eld74vxp65r28"><rect x="84.68" y="100.59" width="332.18" height="257.37" rx="9.35" ry="9.35" style="fill: rgb(255, 255, 255); transform-origin: 250.77px 229.275px;" id="elahwkpn6lw8" class="animable"></rect><g id="elt5tusl2jyj"><rect x="84.68" y="100.59" width="332.18" height="257.37" rx="9.35" ry="9.35" style="fill: #37474F; opacity: 0.4; transform-origin: 250.77px 229.275px;" class="animable" id="elnqihpwq7w"></rect></g></g></g><g id="el3bywvlbqkm2"><rect x="97.27" y="126.27" width="307" height="103" rx="1.64" ry="1.64" style="fill: #37474F; opacity: 0.1; transform-origin: 250.77px 177.77px;" class="animable" id="elwxxxr0s5l2c"></rect></g><rect x="99.62" y="124.03" width="302.3" height="102.85" rx="1.64" ry="1.64" style="fill: rgb(255, 255, 255); transform-origin: 250.77px 175.455px;" id="elv4tdmfqk3fo" class="animable"></rect><g id="elw3wkt9uflno"><rect x="121.97" y="129.29" width="2" height="92.34" style="fill: #37474F; opacity: 0.1; transform-origin: 122.97px 175.46px;" class="animable" id="elozpj4c4r818"></rect></g><g id="elqg1pqlxqzq"><rect x="147.53" y="129.29" width="2" height="92.34" style="fill: #37474F; opacity: 0.1; transform-origin: 148.53px 175.46px;" class="animable" id="el2mpwiewjtcu"></rect></g><g id="elzt4tw78rep"><rect x="173.09" y="129.29" width="2" height="92.34" style="fill: #37474F; opacity: 0.1; transform-origin: 174.09px 175.46px;" class="animable" id="el3js8j4t42vs"></rect></g><g id="el31h2af0nqw1"><rect x="198.65" y="129.29" width="2" height="92.34" style="fill: #37474F; opacity: 0.1; transform-origin: 199.65px 175.46px;" class="animable" id="elky67x4qt6m"></rect></g><g id="elb3ygcujtm0r"><rect x="224.21" y="129.29" width="2" height="92.34" style="fill: #37474F; opacity: 0.1; transform-origin: 225.21px 175.46px;" class="animable" id="eltyunno0xn0e"></rect></g><g id="elr2bwj01me9l"><rect x="249.77" y="129.29" width="2" height="92.34" style="fill: #37474F; opacity: 0.1; transform-origin: 250.77px 175.46px;" class="animable" id="el5lrmepuw145"></rect></g><g id="elgvybges5kw5"><rect x="275.33" y="129.29" width="2" height="92.34" style="fill: #37474F; opacity: 0.1; transform-origin: 276.33px 175.46px;" class="animable" id="el2lhftofi5af"></rect></g><g id="el51cnt3wr565"><rect x="300.89" y="129.29" width="2" height="92.34" style="fill: #37474F; opacity: 0.1; transform-origin: 301.89px 175.46px;" class="animable" id="ele81lbyy0s87"></rect></g><g id="elg7s8d5xtp6f"><rect x="326.45" y="129.29" width="2" height="92.34" style="fill: #37474F; opacity: 0.1; transform-origin: 327.45px 175.46px;" class="animable" id="elr6nx30k4th"></rect></g><g id="el1jsif9tqmnj"><rect x="352.01" y="129.29" width="2" height="92.34" style="fill: #37474F; opacity: 0.1; transform-origin: 353.01px 175.46px;" class="animable" id="el70zc21zzh8n"></rect></g><g id="el4y1iiqqfdqf"><rect x="377.57" y="129.29" width="2" height="92.34" style="fill: #37474F; opacity: 0.1; transform-origin: 378.57px 175.46px;" class="animable" id="el4fp8a0xuvsh"></rect></g><path d="M285.23,199.92a.47.47,0,0,1-.35-.14l-49.71-45.7-52.24,26.5a.58.58,0,0,1-.43,0l-19.25-7.46-55,20.87a.53.53,0,0,1-.68-.31.52.52,0,0,1,.3-.68l55.22-20.94a.55.55,0,0,1,.38,0l19.22,7.44L235,153a.53.53,0,0,1,.6.08l49.78,45.76,60.43-14.49,47.34-41.55a.53.53,0,0,1,.7.8l-47.44,41.64a.61.61,0,0,1-.23.11l-60.83,14.59Z" style="fill: rgb(224, 224, 224); transform-origin: 250.782px 171.304px;" id="elguzapr8fvj" class="animable"></path><path d="M108,206.51a.5.5,0,0,1-.31-.1.52.52,0,0,1-.11-.74L132,173a.53.53,0,0,1,.61-.18l57.89,21.66,78.81-34.85a.53.53,0,0,1,.49,0l29.35,18.16,20.42-13.92a.43.43,0,0,1,.24-.08l73.7-7.3a.54.54,0,0,1,.58.48.54.54,0,0,1-.48.58L320,164.86l-20.59,14a.53.53,0,0,1-.57,0l-29.41-18.2-78.75,34.83a.55.55,0,0,1-.4,0l-57.72-21.6-24.1,32.36A.54.54,0,0,1,108,206.51Z" style="fill: #37474F; transform-origin: 250.782px 181.499px;" id="eltl4bf5xk0ns" class="animable"></path><g id="el4u86z9ljkod"><rect x="296.88" y="244.09" width="107.39" height="97.04" rx="13.06" ry="13.06" style="fill: #37474F; opacity: 0.2; transform-origin: 350.575px 292.61px;" class="animable" id="elmqqfvo6fzd"></rect></g><g id="ely270ys0mljp"><polygon points="216.62 328.78 202.56 327.78 200.65 357.95 216.62 357.95 216.62 328.78" style="fill: #37474F; opacity: 0.4; transform-origin: 208.635px 342.865px;" class="animable" id="elwdbz2gtabzl"></polygon></g><path d="M302.83,412.77H221.55a14.23,14.23,0,0,1-14-13.06l-5-70.93a12,12,0,0,1,12.14-13H296a14.22,14.22,0,0,1,14,13l5,70.93A12,12,0,0,1,302.83,412.77Z" style="fill: #37474F; transform-origin: 258.778px 364.275px;" id="elqdditae99m" class="animable"></path><g id="elx8hagin25xp"><path d="M296,315.73H214.73a12,12,0,0,0-12.14,13l4,57.4H314l-4-57.4A14.22,14.22,0,0,0,296,315.73Z" style="fill: rgb(255, 255, 255); opacity: 0.8; transform-origin: 258.274px 350.929px;" class="animable" id="ely2lmwdrvioa"></path></g><path d="M259.7,377.89c-14.83,0-27.74-12.07-28.79-26.9A24.83,24.83,0,0,1,256,324c14.83,0,27.74,12.07,28.79,26.9a24.83,24.83,0,0,1-25.08,27ZM256,325.08a23.75,23.75,0,0,0-24,25.84,28.27,28.27,0,0,0,27.73,25.91,23.75,23.75,0,0,0,24-25.84h0A28.27,28.27,0,0,0,256,325.08Z" style="fill: rgb(255, 255, 255); transform-origin: 257.85px 350.95px;" id="el75zk6qhuywf" class="animable"></path><polygon points="272.45 350.95 248.44 337.63 250.31 364.27 272.45 350.95" style="fill: #37474F; transform-origin: 260.445px 350.95px;" id="elmqc3on2i0qf" class="animable"></polygon></g><g id="freepik--character-2--inject-355" class="animable" style="transform-origin: 310.875px 256.566px;"><polygon points="360.27 408.83 352.3 408.83 352.39 390.37 360.36 390.37 360.27 408.83" style="fill: rgb(181, 91, 82); transform-origin: 356.33px 399.6px;" id="el755mf2pl20t" class="animable"></polygon><polygon points="408.15 408.83 400.18 408.83 397.05 390.37 405.02 390.37 408.15 408.83" style="fill: rgb(181, 91, 82); transform-origin: 402.6px 399.6px;" id="elqru2i0qiohi" class="animable"></polygon><path d="M399.65,407.91h9a.64.64,0,0,1,.65.54l1.24,7.09a1.24,1.24,0,0,1-1.23,1.42c-3.13-.06-4.64-.24-8.58-.24-2.42,0-9,.25-12.31.25s-3.62-3.31-2.24-3.61c6.21-1.34,10.14-3.19,12.19-5A2,2,0,0,1,399.65,407.91Z" style="fill: rgb(38, 50, 56); transform-origin: 397.98px 412.44px;" id="el6vlj9nu3964" class="animable"></path><path d="M352.4,407.91h8.7a.66.66,0,0,1,.66.54l1.23,7.09a1.22,1.22,0,0,1-1.21,1.42c-3.14-.06-7.67-.24-11.62-.24-4.61,0-7.15.25-12.56.25-3.28,0-4-3.31-2.64-3.61,6.3-1.36,9.94-1.51,15.49-4.83A3.84,3.84,0,0,1,352.4,407.91Z" style="fill: rgb(38, 50, 56); transform-origin: 348.658px 412.44px;" id="elnc46gecaccd" class="animable"></path><path d="M359.5,160.51l-10.89-3.19s-11.58,29-14.44,32c-3.88,4.07-7.78,12.76-14.12,20,.44,1.29,2.54,4.17,3.66,4.64,8.5-5.82,19-15.53,21.17-20.23C349.76,183.05,359.5,160.51,359.5,160.51Z" style="fill: rgb(181, 91, 82); transform-origin: 339.775px 185.64px;" id="eliqifkdi7fx" class="animable"></path><path d="M362.8,155.53c3.1,6.9-6.08,21.55-6.08,21.55L340.42,170a103.4,103.4,0,0,1,8-19.7C353.44,141.27,359.4,148,362.8,155.53Z" style="fill: #37474F; transform-origin: 351.93px 161.523px;" id="eleyd6lq272z" class="animable"></path><g id="elm2ggdcgzd"><path d="M362.8,155.53c3.1,6.9-6.08,21.55-6.08,21.55L340.42,170a103.4,103.4,0,0,1,8-19.7C353.44,141.27,359.4,148,362.8,155.53Z" style="fill: rgb(255, 255, 255); opacity: 0.4; transform-origin: 351.93px 161.523px;" class="animable" id="eldj0odokri1"></path></g><path d="M322.65,207.21l-8.24,4.07,6.57,7.87s1.93-1.27,4.13-6.68Z" style="fill: rgb(181, 91, 82); transform-origin: 319.76px 213.18px;" id="elgr7ofo2681q" class="animable"></path><path d="M311.26,220.77l1.71,1.42a3.22,3.22,0,0,0,4,.07l4-3.11-6.57-7.87-3.7,5.14A3.23,3.23,0,0,0,311.26,220.77Z" style="fill: rgb(181, 91, 82); transform-origin: 315.536px 217.101px;" id="el0t49qzcnns8b" class="animable"></path><g id="eli3mkagou7g"><rect x="218.32" y="201.98" width="107.39" height="97.04" rx="13.06" ry="13.06" style="fill: rgb(255, 255, 255); transform-origin: 272.015px 250.5px; transform: rotate(-16.76deg);" class="animable" id="elhvchs89bzzg"></rect></g><g id="el5o6oed3hak3"><rect x="218.32" y="201.98" width="107.39" height="97.04" rx="13.06" ry="13.06" style="fill: #37474F; opacity: 0.5; transform-origin: 272.015px 250.5px; transform: rotate(-16.76deg);" class="animable" id="elyw63yjfoo9i"></rect></g><path d="M272.05,250.52l-32,14.92a35.3,35.3,0,0,1,52.23-43.83Z" style="fill: #37474F; transform-origin: 264.515px 240.339px;" id="el3jl78m3abcr" class="animable"></path><path d="M292.75,224.45a34,34,0,0,1,2.84,2.53,33.29,33.29,0,1,1-52.82,39.4l30.12-14,.49-.22.31-.44,19.06-27.22m-.46-2.84-20.24,28.91-32,14.92A35.29,35.29,0,1,0,297,225.57a34.9,34.9,0,0,0-4.71-4Z" style="fill: rgb(255, 255, 255); transform-origin: 273.658px 253.657px;" id="elptj2fb8eo7k" class="animable"></path><g id="elfm3osizd3ys"><polygon points="352.39 390.37 352.34 399.89 360.32 399.89 360.37 390.37 352.39 390.37" style="opacity: 0.2; transform-origin: 356.355px 395.13px;" class="animable" id="eljpzi7rl5zca"></polygon></g><g id="eloe7de04hy1i"><polygon points="405.02 390.37 397.05 390.37 398.66 399.89 406.64 399.89 405.02 390.37" style="opacity: 0.2; transform-origin: 401.845px 395.13px;" class="animable" id="el6ty2yla3yze"></polygon></g><path d="M352.67,146.11s-10.64,27.4-3.84,72.25h42.65c.61-6.55-1.91-41.81,5.88-72.66a110.26,110.26,0,0,0-14.19-1.8,156.55,156.55,0,0,0-18.13,0A82.7,82.7,0,0,0,352.67,146.11Z" style="fill: #37474F; transform-origin: 371.96px 180.999px;" id="elbzjv4o4fe1" class="animable"></path><g id="eldjdgxdy15gs"><path d="M352.67,146.11s-10.64,27.4-3.84,72.25h42.65c.61-6.55-1.91-41.81,5.88-72.66a110.26,110.26,0,0,0-14.19-1.8,156.55,156.55,0,0,0-18.13,0A82.7,82.7,0,0,0,352.67,146.11Z" style="fill: rgb(255, 255, 255); opacity: 0.4; transform-origin: 371.96px 180.999px;" class="animable" id="el9k7ry6xpz3"></path></g><g id="el454j0gfutfk"><path d="M387.73,153.32c-1,5.08.07,17.22,4.24,31.26a205.65,205.65,0,0,1,4.65-35.81v-.06C393.83,148.42,388.64,148.56,387.73,153.32Z" style="opacity: 0.2; transform-origin: 392.001px 166.6px;" class="animable" id="el3hqvowe1xph"></path></g><path d="M381.61,127c-1.42,5.83-2.34,13.06,1.56,17,0,0-2.63,5.92-13.47,5.92-9.9,0-4.66-5.92-4.66-5.92,6.58-1.55,6.62-9.6,5.71-14.13Z" style="fill: rgb(181, 91, 82); transform-origin: 373.412px 138.46px;" id="elr4mkwu2om1g" class="animable"></path><path d="M369.71,149.82c6.39,1.38,7.66,4,7.66,4s7.95-3.23,7.65-10.24c0,0-1.87-1.15-3-2.08C382,141.54,381.27,147,369.71,149.82Z" style="fill: rgb(255, 255, 255); transform-origin: 377.369px 147.66px;" id="elg6lqy161zdj" class="animable"></path><path d="M369.71,149.82c-5.17.32-7.57,2.71-7.57,2.71s-1.3-1.69.88-8.63a23.37,23.37,0,0,1,3.52-1.1S365.5,148.32,369.71,149.82Z" style="fill: rgb(255, 255, 255); transform-origin: 365.733px 147.665px;" id="elrt7kl8k01rq" class="animable"></path><g id="elqcqilt9i7cr"><path d="M370.74,129.78c.55,2.65.76,6.51-.5,9.57a10.68,10.68,0,0,0,2.95-.89c3.75-1.73,5.68-4.45,7.76-8.49.19-1,.41-2,.66-3Z" style="opacity: 0.2; transform-origin: 375.925px 133.16px;" class="animable" id="el0muxhla5wzdq"></path></g><path d="M361.67,123.4a7,7,0,0,0,3.67,4.24c2.34,1.1,4-1,3.83-3.44-.19-2.24-1.63-5.51-4.2-5.56A3.55,3.55,0,0,0,361.67,123.4Z" style="fill: rgb(181, 91, 82); transform-origin: 365.32px 123.29px;" id="elnba76bo3rr" class="animable"></path><g id="elrwr4uh1974j"><path d="M361.67,123.4a7,7,0,0,0,3.67,4.24c2.34,1.1,4-1,3.83-3.44-.19-2.24-1.63-5.51-4.2-5.56A3.55,3.55,0,0,0,361.67,123.4Z" style="opacity: 0.2; transform-origin: 365.32px 123.29px;" class="animable" id="el9hm5tndkgwc"></path></g><path d="M370.07,107c-3.22-1.17-8.4,10.65-1.22,11.33S374.91,108.78,370.07,107Z" style="fill: rgb(38, 50, 56); transform-origin: 369.599px 112.641px;" id="elglrh6n0y8zb" class="animable"></path><path d="M386.68,119.84c-2.48,7.64-3.56,12.23-8.44,15.36-7.34,4.72-15.82-.88-15.63-9,.18-7.32,4.21-18.59,12.47-20S389.16,112.19,386.68,119.84Z" style="fill: rgb(181, 91, 82); transform-origin: 374.932px 121.477px;" id="elb2kx7slkaj" class="animable"></path><path d="M369.71,111.2c-6.25-4.74-2.68-14.35,2.25-15,6.7-.84,10.53,12.44,18.3,13.05s4.41,13-5.68,16.41c-3.71,1.27-4.29-3.44-.59-10C381.61,116.29,373.32,113.94,369.71,111.2Z" style="fill: rgb(38, 50, 56); transform-origin: 380.456px 111.015px;" id="elk2rmmrdu5t" class="animable"></path><path d="M369.64,127.93a5.63,5.63,0,0,0,4.15-1.33.19.19,0,0,0,0-.27.2.2,0,0,0-.27,0,5.38,5.38,0,0,1-4.55,1.12.19.19,0,0,0-.22.15.18.18,0,0,0,.14.22A6.62,6.62,0,0,0,369.64,127.93Z" style="fill: rgb(38, 50, 56); transform-origin: 371.296px 127.114px;" id="el6emowklzzct" class="animable"></path><path d="M387.9,129.13a7.88,7.88,0,0,1-5.37,2.27c-2.63,0-3.13-2.52-1.72-4.66,1.27-1.92,4.16-4.24,6.48-3.22S389.66,127.36,387.9,129.13Z" style="fill: rgb(181, 91, 82); transform-origin: 384.588px 127.336px;" id="el0hh7h1bsqhr" class="animable"></path><path d="M376.86,218.36s-1.08,10-2.47,23.61c-1.59,15.4-3.57,35.39-4.82,50.63a1.65,1.65,0,0,0,0,.21c-.24,2.89-.46,5.6-.63,8.08-1.79,24.85-6,97.16-6,97.16h-13.5s-5.09-73.79-4.79-99.08c.29-24.32,4.16-80.61,4.16-80.61Z" style="fill: #37474F; transform-origin: 360.749px 308.205px;" id="elv74eou54rha" class="animable"></path><path d="M364.08,392.76c.06,0-.24,5.56-.24,5.56H348.27l-.39-6.11Z" style="fill: rgb(38, 50, 56); transform-origin: 355.984px 395.265px;" id="elif0m0tpk8i" class="animable"></path><g id="elqo2r5bwkzf"><path d="M374.39,242c-1.59,15.4-3.57,35.39-4.82,50.63a1.65,1.65,0,0,0,0,.21c-3-14.44-3.89-32.41-2.74-62Z" style="opacity: 0.2; transform-origin: 370.368px 261.84px;" class="animable" id="elxdv64ulxn6i"></path></g><path d="M364,218.36s6.22,57.61,10.1,80.44c4.24,25,21,99.25,21,99.25h14.61s-9.85-72.23-11.77-97c-2.09-26.87-6.39-82.71-6.39-82.71Z" style="fill: #37474F; transform-origin: 386.855px 308.195px;" id="elsan0ke7jtbk" class="animable"></path><path d="M409.85,393.09c.06,0,.5,5.23.5,5.23H394.3l-1.17-5.83Z" style="fill: rgb(38, 50, 56); transform-origin: 401.74px 395.405px;" id="el7ze0jm06lam" class="animable"></path><path d="M374.56,119.48c-.16.63-.63,1.07-1,1s-.6-.67-.44-1.3.63-1.08,1-1S374.72,118.85,374.56,119.48Z" style="fill: rgb(38, 50, 56); transform-origin: 373.84px 119.329px;" id="elgt59nxeaq5r" class="animable"></path><path d="M367.55,117.94c-.16.63-.63,1.07-1,1s-.6-.68-.44-1.31.63-1.07,1-1S367.71,117.31,367.55,117.94Z" style="fill: rgb(38, 50, 56); transform-origin: 366.83px 117.785px;" id="el89zp9w5nqi5" class="animable"></path><path d="M369.7,118.74a24.53,24.53,0,0,1-4.37,4.75c.83,1.28,2.82,1.22,2.82,1.22Z" style="fill: rgb(160, 39, 36); transform-origin: 367.515px 121.725px;" id="elo3xjgkeh06c" class="animable"></path><path d="M377,118.57a.39.39,0,0,1-.24-.23,2.82,2.82,0,0,0-1.87-1.9.36.36,0,0,1-.27-.45.42.42,0,0,1,.47-.29,3.51,3.51,0,0,1,2.39,2.37.39.39,0,0,1-.48.5Z" style="fill: rgb(38, 50, 56); transform-origin: 376.054px 117.14px;" id="eljxwk7bs9coh" class="animable"></path><path d="M392.28,112.58a.49.49,0,0,1,.32-.35,4,4,0,0,0,2.62-2.75.51.51,0,0,1,.63-.39.57.57,0,0,1,.43.65,5,5,0,0,1-3.27,3.5.56.56,0,0,1-.71-.32A.57.57,0,0,1,392.28,112.58Z" style="fill: rgb(38, 50, 56); transform-origin: 394.276px 111.173px;" id="el2dc9scue425" class="animable"></path><path d="M396.88,114.4a.51.51,0,0,1-.46-.08,4,4,0,0,0-3.72-.75.52.52,0,0,1-.68-.33.57.57,0,0,1,.32-.7,5,5,0,0,1,4.72.89.57.57,0,0,1,.1.77A.51.51,0,0,1,396.88,114.4Z" style="fill: rgb(38, 50, 56); transform-origin: 394.629px 113.359px;" id="el00q46lg8j6owj" class="animable"></path><path d="M365.06,115.14a.55.55,0,0,1-.15-.08.38.38,0,0,1,0-.54,3.88,3.88,0,0,1,3.24-1.31.35.35,0,0,1,.29.43.39.39,0,0,1-.44.32h0a3.08,3.08,0,0,0-2.55,1.07A.39.39,0,0,1,365.06,115.14Z" style="fill: rgb(38, 50, 56); transform-origin: 366.624px 114.175px;" id="elts7rn2ejzdi" class="animable"></path><path d="M402.09,156.59,392,162.68s12.58,24.63,11.19,28.48c-1.9,5.24-4.78,16.74-8.14,22.52.32,1.27,2.17,4.22,3.27,4.75,8-5.5,16.83-23.23,16.82-28.24C415.13,178.77,402.09,156.59,402.09,156.59Z" style="fill: rgb(181, 91, 82); transform-origin: 403.57px 187.51px;" id="el3w4gkv35bv2" class="animable"></path><path d="M397.36,145.7c7.49,1.1,14.88,27.24,14.88,27.24L396,181.89s-6.38-12.43-9.38-21.66C383.44,150.55,389.32,144.53,397.36,145.7Z" style="fill: #37474F; transform-origin: 398.991px 163.723px;" id="elr713heukbho" class="animable"></path><g id="el5eq9ft22dpj"><path d="M397.36,145.7c7.49,1.1,14.88,27.24,14.88,27.24L396,181.89s-6.38-12.43-9.38-21.66C383.44,150.55,389.32,144.53,397.36,145.7Z" style="fill: rgb(255, 255, 255); opacity: 0.4; transform-origin: 398.991px 163.723px;" class="animable" id="ele7i0msy1l2n"></path></g><path d="M397,409.3a2.31,2.31,0,0,1-1.52-.41,1.09,1.09,0,0,1-.34-1,.63.63,0,0,1,.35-.53c.89-.45,3.4,1.13,3.68,1.31a.2.2,0,0,1,.08.19.21.21,0,0,1-.15.15A9.17,9.17,0,0,1,397,409.3Zm-1.11-1.65a.43.43,0,0,0-.24.05c-.06,0-.12.07-.13.22a.72.72,0,0,0,.22.68c.42.37,1.46.42,2.82.15A7.26,7.26,0,0,0,395.84,407.65Z" style="fill: #37474F; transform-origin: 397.187px 408.294px;" id="elu3iqhh2qoqj" class="animable"></path><path d="M399,409l-.08,0c-.81-.45-2.32-2.2-2.11-3.09a.65.65,0,0,1,.63-.49,1,1,0,0,1,.79.24c.89.76,1,3.06,1,3.16a.21.21,0,0,1-.09.17A.2.2,0,0,1,399,409Zm-1.45-3.23h-.09c-.24,0-.27.15-.28.19-.13.53.83,1.85,1.62,2.47A4.37,4.37,0,0,0,398,406,.64.64,0,0,0,397.55,405.79Z" style="fill: #37474F; transform-origin: 398.01px 407.21px;" id="eloqobagy45mo" class="animable"></path><path d="M349,409.3a2.9,2.9,0,0,1-1.91-.49,1,1,0,0,1-.31-.92.62.62,0,0,1,.34-.5c1-.54,4.12,1.08,4.47,1.27a.18.18,0,0,1,.09.2.2.2,0,0,1-.16.16A14.15,14.15,0,0,1,349,409.3Zm-1.36-1.65a.74.74,0,0,0-.36.07.27.27,0,0,0-.13.2.68.68,0,0,0,.2.61c.47.43,1.78.51,3.56.22A10,10,0,0,0,347.65,407.65Z" style="fill: #37474F; transform-origin: 349.224px 408.297px;" id="elkhplij0th1" class="animable"></path><path d="M351.5,409l-.08,0c-.94-.43-2.77-2.15-2.58-3.06.05-.21.21-.47.73-.52a1.3,1.3,0,0,1,1,.32c1,.83,1.09,3,1.09,3.07a.19.19,0,0,1-.08.17A.17.17,0,0,1,351.5,409Zm-1.79-3.23h-.12c-.34,0-.37.17-.38.21-.11.55,1.12,1.9,2.07,2.49a4.21,4.21,0,0,0-.93-2.46A1,1,0,0,0,349.71,405.79Z" style="fill: #37474F; transform-origin: 350.243px 407.206px;" id="el1zmw5ej6fkf" class="animable"></path><path d="M396.41,213.32l-7.56-.58,3.59,8.38s6.64.29,8-4.79Z" style="fill: rgb(181, 91, 82); transform-origin: 394.645px 216.932px;" id="el4fdk9l0o47x" class="animable"></path><path d="M383.46,218.52l1.66,3.38a2.38,2.38,0,0,0,3.12,1.12l4.2-1.9-3.59-8.38-4.48,2.69A2.38,2.38,0,0,0,383.46,218.52Z" style="fill: rgb(181, 91, 82); transform-origin: 387.828px 217.986px;" id="elcx6b0nisyiq" class="animable"></path><path d="M317.12,209.92a31.72,31.72,0,0,1-7.95,1.74.49.49,0,0,0-.46.59,2.14,2.14,0,0,0,1.49,1.5c.84.19,3,.6,3.47.69a.42.42,0,0,1,.19.09,8.73,8.73,0,0,0,4.56,1.78c1.94,0,0-4.69-.7-6.15A.46.46,0,0,0,317.12,209.92Z" style="fill: rgb(181, 91, 82); transform-origin: 313.979px 213.097px;" id="eljgtndikann" class="animable"></path></g><g id="freepik--character-1--inject-355" class="animable" style="transform-origin: 136.847px 264.402px;"><path d="M150.23,140.56c.87,5.29,1.62,14.94-2.16,18.33a20.33,20.33,0,0,0,12.46,8.9c8.28-4.2,3.86-8.41,3.86-8.41-5.82-1.57-5.54-5.91-4.39-10Z" style="fill: rgb(255, 195, 189); transform-origin: 156.819px 154.175px;" id="elvv96m5dw3v" class="animable"></path><path d="M138.3,172.16c-.62,5.06-1.42,10-2.41,15s-2.07,9.9-3.51,14.84c-.73,2.48-1.57,5-2.48,7.3s-1.82,4.68-2.78,7c-1.91,4.63-3.93,9.19-6.12,13.71l-4.22-1.51c1.13-4.86,2.4-9.68,3.71-14.47s2.75-9.55,3.79-14.14,2-9.5,2.78-14.33,1.55-9.72,2.26-14.51Z" style="fill: rgb(255, 195, 189); transform-origin: 127.54px 200.53px;" id="elnhk5ca0n9hg" class="animable"></path><path d="M132.74,160.45c-3.52,1.34-7,15.57-7,15.57l14,10.64s5-13.86,3.2-18.4C141,163.53,136.76,158.92,132.74,160.45Z" style="fill: #37474F; transform-origin: 134.535px 173.406px;" id="el92gizyw3u9" class="animable"></path><path d="M117.64,226.77l-6.38,7.13,9,.26s2.89-4.9,1-8Z" style="fill: rgb(255, 195, 189); transform-origin: 116.581px 230.16px;" id="elwb8h4wsohd" class="animable"></path><g id="el3x7j5p3y6zj"><rect x="61.39" y="238.45" width="107.39" height="97.04" rx="13.06" ry="13.06" style="fill: #37474F; opacity: 0.2; transform-origin: 115.085px 286.97px; transform: rotate(-7.98deg);" class="animable" id="elpbes2y4289"></rect></g><path d="M84.27,331.49a8.64,8.64,0,0,1-8.54-7.43l-8.68-61.93a8.62,8.62,0,0,1,7.34-9.74l70.31-9.87a8.64,8.64,0,0,1,9.74,7.35l8.69,61.93a8.64,8.64,0,0,1-7.35,9.75l-70.3,9.86A10,10,0,0,1,84.27,331.49ZM145.9,243a8.71,8.71,0,0,0-1.13.08l-70.3,9.86a8.09,8.09,0,0,0-6.9,9.15L76.26,324a8.11,8.11,0,0,0,9.14,6.89L155.71,321a8.1,8.1,0,0,0,6.9-9.14L153.92,250A8.12,8.12,0,0,0,145.9,243Z" style="fill: rgb(255, 255, 255); transform-origin: 115.089px 286.964px;" id="elnlntn7xmiii" class="animable"></path><polygon points="110.77 241.32 118.31 241.14 120.26 234.16 111.26 233.9 110.77 241.32" style="fill: rgb(255, 195, 189); transform-origin: 115.515px 237.61px;" id="elxo4s2nxpix" class="animable"></polygon><path d="M180.12,166.27c.2,5.6-.77,18.67-6.66,49.11l-35.94-1.07c1-14.61,1.32-23.63-4.78-53.86a107.12,107.12,0,0,1,15.33-1.56,115.1,115.1,0,0,1,16.32.49c4.16.5,8.64,1.37,11.59,2A5.2,5.2,0,0,1,180.12,166.27Z" style="fill: #37474F; transform-origin: 156.442px 187.087px;" id="elvxz2a7ocjam" class="animable"></path><path d="M179.6,167.93c1.68,4.82,3.18,9.61,4.59,14.48s2.74,9.74,3.93,14.67l.44,1.85.22.93.11.46s0-.11,0-.1,0,.2.28.48a8.59,8.59,0,0,0,.9,1,40.54,40.54,0,0,0,5.43,4.11c4,2.63,8.37,5.11,12.66,7.52l-1.7,4.15A93.2,93.2,0,0,1,192,211.9a41.1,41.1,0,0,1-7-4.26,18.68,18.68,0,0,1-1.8-1.63,9.79,9.79,0,0,1-1.8-2.63,8.4,8.4,0,0,1-.35-1l-.14-.44-.26-.89-.54-1.79q-2.17-7.11-4.44-14.23L171,170.84Z" style="fill: rgb(255, 195, 189); transform-origin: 189.58px 192.705px;" id="el7dbtojv5ioa" class="animable"></path><path d="M176.22,161.42c6.62,1.41,8.76,15.36,8.76,15.36l-11.37,10.39s-9.31-15.81-7.1-20.18C168.81,162.44,170.84,160.28,176.22,161.42Z" style="fill: #37474F; transform-origin: 175.575px 174.145px;" id="elsv1fm4m7tnc" class="animable"></path><path d="M206,212.45l9,3.4-7.3,4.84s-4.32-2.56-4-6.14Z" style="fill: rgb(255, 195, 189); transform-origin: 209.342px 216.57px;" id="eljs4jtsjctvj" class="animable"></path><polygon points="218.52 220.56 212.98 224.05 207.64 220.69 214.94 215.85 218.52 220.56" style="fill: rgb(255, 195, 189); transform-origin: 213.08px 219.95px;" id="el47ee6e8p5cw" class="animable"></polygon><path d="M170.14,131c.06.71.49,1.26,1,1.22s.8-.65.74-1.36-.48-1.26-1-1.22S170.09,130.26,170.14,131Z" style="fill: rgb(38, 50, 56); transform-origin: 171.011px 130.93px;" id="eldzhajguy4r" class="animable"></path><path d="M170.68,129.67l1.67-.63S171.58,130.44,170.68,129.67Z" style="fill: rgb(38, 50, 56); transform-origin: 171.515px 129.471px;" id="eldk1ieq2hiao" class="animable"></path><path d="M170.88,132.5a19.11,19.11,0,0,0,2.91,4.34,3.08,3.08,0,0,1-2.5.68Z" style="fill: rgb(237, 132, 126); transform-origin: 172.335px 135.032px;" id="elxaqa06gu4m9" class="animable"></path><path d="M167.38,129.32a.43.43,0,0,0,.42-.26c.73-1.8,3.16-2.38,3.18-2.39a.42.42,0,1,0-.19-.81c-.12,0-2.88.69-3.77,2.88a.42.42,0,0,0,.23.55A.31.31,0,0,0,167.38,129.32Z" style="fill: rgb(38, 50, 56); transform-origin: 169.175px 127.576px;" id="elapn292x7o6g" class="animable"></path><path d="M145.85,130.34c1.25,8.7,1.59,12.41,6.38,16.53,7.19,6.21,17.6,2.76,19-6.13,1.23-8-1-20.89-9.87-23.67A12,12,0,0,0,145.85,130.34Z" style="fill: rgb(255, 195, 189); transform-origin: 158.625px 133.261px;" id="el47q6qcoyynj" class="animable"></path><path d="M160.33,114.67c-3.89-4.76-22.19-4.49-17,7.77-7.71,1.06-7.62,8.55-6.92,14.2s-5.91,4.59-7.05,11.47,1.78,7.56-3.06,13,2.14,16.72,11.32,13.81,16.48,2.81,27.9.54,12.52-11.47,10-16.64c-2.34-4.83-5.58-5.54-4.89-10.15,1-6.79-3.44-13.34-7.41-15.42C168,128.7,182.17,114.94,160.33,114.67Z" style="fill: rgb(38, 50, 56); transform-origin: 150.679px 143.905px;" id="elqa9jd6htave" class="animable"></path><path d="M163.65,134.46a4.7,4.7,0,0,0,2.93,2.49c1.63.42,2.39-1.37,1.89-3.15-.44-1.61-1.83-3.76-3.44-3.37S162.87,132.89,163.65,134.46Z" style="fill: rgb(255, 195, 189); transform-origin: 165.961px 133.698px;" id="el0pzs4f3mhh4e" class="animable"></path><path d="M100.47,406.52a3.35,3.35,0,0,1-2.08-.76,1.16,1.16,0,0,1-.27-1.05.67.67,0,0,1,.41-.52c1.14-.48,4.47,1.67,4.84,1.91a.21.21,0,0,1,.09.23.2.2,0,0,1-.18.16A15.28,15.28,0,0,1,100.47,406.52Zm-1.38-2a.72.72,0,0,0-.4,0,.24.24,0,0,0-.16.21.76.76,0,0,0,.17.69c.49.53,1.93.77,3.91.64A11.37,11.37,0,0,0,99.09,404.54Z" style="fill: #37474F; transform-origin: 100.778px 405.345px;" id="elgk9jj9xvqmk" class="animable"></path><path d="M103.24,406.49a.16.16,0,0,1-.09,0c-1-.58-2.88-2.69-2.62-3.67.06-.23.26-.51.85-.51a1.49,1.49,0,0,1,1.11.48c1,1,1,3.42,1,3.52a.19.19,0,0,1-.11.18A.27.27,0,0,1,103.24,406.49Zm-1.74-3.79h-.12c-.39,0-.43.15-.44.2-.16.59,1.1,2.22,2.1,3a4.81,4.81,0,0,0-.85-2.83A1.07,1.07,0,0,0,101.5,402.7Z" style="fill: #37474F; transform-origin: 101.998px 404.405px;" id="elgznkvocnnph" class="animable"></path><polygon points="102.63 407.93 111.48 407.93 116.05 387.43 107.2 387.43 102.63 407.93" style="fill: rgb(255, 195, 189); transform-origin: 109.34px 397.68px;" id="elgpx4qo5ev4o" class="animable"></polygon><path d="M102.66,405.94l9.85-1.37a.55.55,0,0,1,.66.52l.65,7.85a1.82,1.82,0,0,1-1.5,1.8c-3.44.42-5.08.44-9.41,1.05A82,82,0,0,1,92.08,417c-3.64,0-3.18-3.67-1.57-4,7.24-1.49,8.21-3.94,10.65-6.26A2.8,2.8,0,0,1,102.66,405.94Z" style="fill: rgb(38, 50, 56); transform-origin: 101.562px 410.779px;" id="elxmlh50f5z9j" class="animable"></path><g id="el8mnct9ahpuf"><g style="opacity: 0.2; transform-origin: 110.445px 392.715px;" class="animable" id="el3o10cir4jg6"><polygon points="116.05 387.43 113.69 398 104.84 398 107.19 387.43 116.05 387.43" id="elopnhbtdx91" class="animable" style="transform-origin: 110.445px 392.715px;"></polygon></g></g><path d="M137.52,214.31c-9.71,13.71-15.33,64.05-18.82,91-3.63,28-14.28,90.67-14.28,90.67h12s16.53-63.49,22.8-90.82c6.93-30.16,21.34-90.82,21.34-90.82Z" style="fill: rgb(38, 50, 56); transform-origin: 132.49px 305.145px;" id="elroy14p4flg" class="animable"></path><g id="elchv5mdag104"><path d="M147.53,237.61c-5.85,17.68-6.1,40-5.43,55,3.6-15.53,8.08-34.54,11.72-49.94Z" style="opacity: 0.2; transform-origin: 147.83px 265.11px;" class="animable" id="el60zb9r2apkw"></path></g><path d="M161.51,407.52a3.35,3.35,0,0,0,2.14-.54,1.17,1.17,0,0,0,.38-1,.65.65,0,0,0-.35-.55c-1.09-.6-4.62,1.21-5,1.41a.23.23,0,0,0-.11.22.2.2,0,0,0,.17.17A15,15,0,0,0,161.51,407.52Zm1.57-1.83a.77.77,0,0,1,.4.08.23.23,0,0,1,.13.22.72.72,0,0,1-.24.67c-.53.49-2,.57-4,.25A11.24,11.24,0,0,1,163.08,405.69Z" style="fill: #37474F; transform-origin: 161.303px 406.421px;" id="elpn5p8myfj0k" class="animable"></path><path d="M158.76,407.21l.09,0c1.05-.48,3.14-2.39,3-3.39,0-.24-.21-.53-.79-.59a1.54,1.54,0,0,0-1.16.36c-1.12.93-1.32,3.31-1.33,3.41a.22.22,0,0,0,.09.19A.19.19,0,0,0,158.76,407.21Zm2.11-3.59H161c.38,0,.4.19.41.24.1.6-1.32,2.1-2.39,2.75a4.86,4.86,0,0,1,1.13-2.73A1.09,1.09,0,0,1,160.87,403.62Z" style="fill: #37474F; transform-origin: 160.213px 405.216px;" id="ellvlryevk6dp" class="animable"></path><polygon points="149.94 407.93 158.8 407.93 158.37 387.43 149.51 387.43 149.94 407.93" style="fill: rgb(255, 195, 189); transform-origin: 154.155px 397.68px;" id="elgplunnqpxnm" class="animable"></polygon><path d="M159.66,406.91h-9.95a.7.7,0,0,0-.71.6l-1.13,7.87a1.42,1.42,0,0,0,1.42,1.58c3.47-.06,5.14-.27,9.51-.27,2.69,0,10.42.28,14.14.28s3.92-3.67,2.37-4c-6.94-1.49-11.84-3.55-14.17-5.51A2.33,2.33,0,0,0,159.66,406.91Z" style="fill: rgb(38, 50, 56); transform-origin: 162.042px 411.94px;" id="el9cir8m1lpgg" class="animable"></path><g id="el5888ybsfj"><g style="opacity: 0.2; transform-origin: 154.05px 392.715px;" class="animable" id="elnbsgnueon2g"><polygon points="158.36 387.43 158.59 398 149.73 398 149.51 387.43 158.36 387.43" id="el909gtcf7z3p" class="animable" style="transform-origin: 154.05px 392.715px;"></polygon></g></g><path d="M173.46,215.38s-3.67,66.64-6.2,93.53c-2.64,28-7,87-7,87h-12s-2.62-60.14-.67-87.67c2.12-30-5.74-71.66-.51-93.68C152,214.6,173.46,215.38,173.46,215.38Z" style="fill: rgb(38, 50, 56); transform-origin: 159.355px 305.235px;" id="elv5rwvia0nn" class="animable"></path><polygon points="147.28 396.38 161.33 396.38 162.03 390.86 146.71 391.95 147.28 396.38" style="fill: #37474F; transform-origin: 154.37px 393.62px;" id="elbv4wij4a3v5" class="animable"></polygon><polygon points="103.59 396.38 117.63 396.38 119.04 390.51 103.4 391.96 103.59 396.38" style="fill: #37474F; transform-origin: 111.22px 393.445px;" id="el6e5i5e1cdyc" class="animable"></polygon><path d="M137,212.19l-1,3.19c-.13.24.15.51.57.52l37,1.1c.33,0,.6-.14.63-.35l.42-3.2c0-.23-.25-.42-.6-.43l-36.4-1.09A.69.69,0,0,0,137,212.19Z" style="fill: #37474F; transform-origin: 155.294px 214.463px;" id="elx89tjj8ou1i" class="animable"></path><path d="M141.81,216.4l-1,0c-.2,0-.34-.11-.33-.23l.59-4.17c0-.12.19-.21.38-.21l1,0c.2,0,.34.11.33.23l-.59,4.17C142.18,216.31,142,216.41,141.81,216.4Z" style="fill: rgb(38, 50, 56); transform-origin: 141.63px 214.095px;" id="el1ssyac2rt0i" class="animable"></path><path d="M170.84,217.27l-1,0c-.2,0-.34-.11-.32-.24l.58-4.16c0-.12.19-.22.38-.21l1,0c.19,0,.34.11.32.23l-.58,4.16C171.21,217.18,171,217.27,170.84,217.27Z" style="fill: rgb(38, 50, 56); transform-origin: 170.66px 214.965px;" id="elzn79bd49h1" class="animable"></path><path d="M156.33,216.83l-1,0c-.19,0-.34-.12-.32-.24l.58-4.16c0-.13.19-.22.39-.21l1,0c.19,0,.34.11.32.24l-.58,4.16C156.69,216.74,156.52,216.84,156.33,216.83Z" style="fill: rgb(38, 50, 56); transform-origin: 156.155px 214.525px;" id="el5uhlg2dlvdw" class="animable"></path></g><defs>     <filter id="active" height="200%">         <feMorphology in="SourceAlpha" result="DILATED" operator="dilate" radius="2"></feMorphology>                <feFlood flood-color="#32DFEC" flood-opacity="1" result="PINK"></feFlood>        <feComposite in="PINK" in2="DILATED" operator="in" result="OUTLINE"></feComposite>        <feMerge>            <feMergeNode in="OUTLINE"></feMergeNode>            <feMergeNode in="SourceGraphic"></feMergeNode>        </feMerge>    </filter>    <filter id="hover" height="200%">        <feMorphology in="SourceAlpha" result="DILATED" operator="dilate" radius="2"></feMorphology>                <feFlood flood-color="#ff0000" flood-opacity="0.5" result="PINK"></feFlood>        <feComposite in="PINK" in2="DILATED" operator="in" result="OUTLINE"></feComposite>        <feMerge>            <feMergeNode in="OUTLINE"></feMergeNode>            <feMergeNode in="SourceGraphic"></feMergeNode>        </feMerge>            <feColorMatrix type="matrix" values="0   0   0   0   0                0   1   0   0   0                0   0   0   0   0                0   0   0   1   0 "></feColorMatrix>    </filter></defs></svg>